<?xml version="1.0" standalone="no"?>
<!DOCTYPE svg PUBLIC "-//W3C//DTD SVG 20010904//EN"
 "http://www.w3.org/TR/2001/REC-SVG-20010904/DTD/svg10.dtd">
<svg version="1.0" xmlns="http://www.w3.org/2000/svg"
 width="429.000000pt" height="409.000000pt" viewBox="0 0 429.000000 409.000000"
 preserveAspectRatio="xMidYMid meet">

<g transform="translate(0.000000,409.000000) scale(0.100000,-0.100000)"
fill="#000000" stroke="none">
<path d="M4240 4060 c0 -13 7 -20 20 -20 13 0 20 7 20 20 0 13 -7 20 -20 20
-13 0 -20 -7 -20 -20z"/>
<path d="M1957 3693 c-11 -10 -8 -103 3 -103 6 0 10 25 10 55 0 56 -1 60 -13
48z"/>
<path d="M1773 3674 c3 -11 10 -41 17 -67 7 -26 16 -44 21 -40 11 12 -15 116
-30 121 -9 3 -11 -2 -8 -14z"/>
<path d="M2137 3680 c-9 -24 -27 -94 -27 -108 0 -26 18 -1 30 42 12 44 10 98
-3 66z"/>
<path d="M1610 3618 c0 -19 52 -118 62 -118 5 0 7 3 5 8 -3 4 -16 33 -31 65
-25 55 -36 69 -36 45z"/>
<path d="M2281 3571 c-34 -67 -38 -79 -17 -62 16 14 60 111 52 118 -2 3 -18
-22 -35 -56z"/>
<path d="M1850 3546 c-180 -40 -316 -164 -375 -341 -25 -72 -27 -90 -22 -185
4 -80 10 -118 28 -161 40 -94 60 -114 33 -34 -46 140 -39 273 22 401 36 74
151 192 217 222 125 58 254 65 374 21 162 -60 284 -214 315 -396 14 -87 2
-178 -36 -273 -14 -33 -23 -60 -21 -60 11 0 59 98 77 153 21 69 26 211 8 275
-49 185 -191 325 -375 372 -87 22 -163 24 -245 6z"/>
<path d="M1470 3532 c0 -12 72 -124 76 -119 5 5 -65 127 -72 127 -2 0 -4 -4
-4 -8z"/>
<path d="M2428 3498 c-8 -13 -20 -34 -27 -48 -12 -24 -11 -24 4 -5 19 23 48
75 41 75 -2 0 -10 -10 -18 -22z"/>
<path d="M1306 3478 c39 -67 154 -212 154 -195 0 13 -142 207 -151 207 -6 0
-7 -6 -3 -12z"/>
<path d="M2537 3389 c-38 -55 -67 -102 -64 -105 6 -7 147 179 147 194 0 26
-18 7 -83 -89z"/>
<path d="M44 3466 c-12 -31 3 -189 25 -258 23 -73 66 -136 120 -177 34 -26 34
-26 29 -3 -4 12 -5 22 -3 22 1 0 28 -40 59 -89 62 -98 153 -189 224 -225 112
-56 267 -96 375 -96 l67 0 0 34 c0 19 2 40 5 48 10 26 -12 37 -160 83 -172 53
-338 130 -442 206 -84 60 -92 78 -12 23 78 -53 257 -137 379 -178 202 -67 496
-156 584 -176 124 -29 162 -53 49 -31 -32 6 -43 5 -43 -4 0 -16 23 -25 61 -25
16 0 29 -5 29 -11 0 -7 -15 -9 -42 -4 -41 6 -42 5 -23 -10 24 -19 116 -17 123
3 2 7 -7 12 -25 12 -25 1 -26 2 -9 11 16 10 26 4 65 -36 25 -25 39 -45 31 -44
-26 4 -130 -13 -136 -22 -9 -14 84 -10 121 5 23 10 43 12 62 6 15 -5 58 -16
95 -25 37 -9 75 -23 85 -30 31 -23 5 -30 -45 -12 -103 37 -166 15 -198 -68
-45 -119 58 -211 228 -203 l73 3 3 -37 c2 -20 -4 -51 -13 -68 -9 -18 -14 -34
-12 -37 12 -11 79 29 97 59 24 40 25 79 4 124 -25 53 -63 68 -155 61 -66 -5
-79 -4 -93 12 -37 41 -6 98 48 86 93 -20 104 -19 137 14 27 28 31 37 26 68 -8
49 -38 77 -116 109 -85 36 -112 54 -192 131 -37 34 -87 71 -112 82 -43 19 -67
23 -302 57 -213 30 -387 84 -572 177 -231 116 -372 237 -460 394 -25 45 -33
53 -39 39z m746 -778 c130 -22 133 -23 74 -26 -67 -3 -180 17 -234 42 -41 19
-61 21 160 -16z"/>
<path d="M3847 3426 c-139 -266 -558 -502 -1007 -567 -252 -36 -275 -41 -335
-69 -39 -18 -85 -52 -130 -97 -58 -57 -84 -75 -153 -102 -111 -45 -149 -95
-122 -160 18 -44 58 -57 126 -42 49 11 58 11 75 -5 25 -23 24 -59 -2 -78 -16
-11 -39 -13 -93 -9 -88 7 -130 -11 -152 -62 -29 -71 -4 -141 61 -172 43 -21
51 -14 30 27 -9 17 -15 48 -13 68 l3 37 72 -3 c171 -9 274 84 228 204 -29 77
-106 105 -192 69 -42 -18 -63 -19 -63 -4 0 14 57 37 140 55 61 14 77 23 134
75 60 55 70 61 162 84 53 14 140 39 193 55 347 104 434 131 495 154 80 30 255
117 300 149 22 15 27 16 17 4 -23 -29 -144 -105 -227 -143 -74 -33 -217 -83
-346 -119 -32 -9 -59 -19 -62 -23 -2 -4 -1 -31 2 -61 l5 -54 91 6 c182 12 350
76 456 174 51 47 88 95 167 219 10 16 11 16 7 2 -10 -28 10 -21 58 22 51 44
82 107 104 209 15 71 19 197 6 205 -4 2 -20 -19 -35 -48z m-554 -726 c-57 -25
-143 -40 -222 -39 l-66 2 55 9 c30 6 98 18 150 28 122 23 134 23 83 0z"/>
<path d="M1858 3248 l-3 -93 -98 -3 -98 -3 3 -102 3 -102 95 -5 95 -5 3 -92 3
-93 104 0 105 0 0 95 0 95 95 0 95 0 0 105 0 104 -92 3 -93 3 -3 93 -3 92
-104 0 -104 0 -3 -92z"/>
<path d="M1285 3251 c38 -39 71 -71 74 -71 7 0 -93 105 -119 124 -14 10 6 -13
45 -53z"/>
<path d="M2680 3297 c-8 -7 -37 -38 -65 -67 -46 -50 -44 -50 18 10 37 35 67
66 67 67 0 5 -5 3 -20 -10z"/>
<path d="M1050 3221 c0 -18 79 -74 238 -168 111 -66 78 -35 -76 70 -166 113
-162 110 -162 98z"/>
<path d="M2734 3134 c-152 -105 -197 -142 -119 -98 73 41 241 153 256 170 30
36 -7 17 -137 -72z"/>
<path d="M990 3070 c0 -12 209 -115 217 -107 2 3 -46 30 -106 61 -61 31 -111
52 -111 46z"/>
<path d="M2805 3009 c-71 -38 -127 -69 -122 -69 18 0 257 120 257 129 0 14 16
21 -135 -60z"/>
<path d="M65 3033 c19 -108 60 -172 138 -217 42 -24 132 -57 195 -71 l33 -7
-52 49 c-28 26 -73 79 -98 118 -26 39 -59 76 -76 84 -17 9 -54 30 -82 48 -29
18 -56 33 -59 33 -3 0 -3 -17 1 -37z"/>
<path d="M3830 3051 c-13 -11 -50 -32 -81 -47 -48 -22 -62 -36 -85 -78 -15
-28 -58 -81 -95 -118 -73 -74 -74 -72 41 -41 112 31 192 90 235 173 18 36 32
130 19 130 -5 0 -20 -9 -34 -19z"/>
<path d="M160 2767 c0 -42 50 -125 106 -176 75 -68 151 -103 239 -108 68 -4
69 -3 45 12 -16 10 -18 14 -6 11 45 -15 257 -29 326 -22 104 10 105 11 89 79
l-12 57 -101 -1 c-114 0 -179 10 -250 40 -27 12 -111 37 -188 56 -77 20 -163
44 -191 55 -29 11 -53 20 -54 20 -2 0 -3 -10 -3 -23z m758 -253 c-13 -13 -147
-24 -203 -17 -58 8 -56 8 55 14 63 3 124 6 134 7 11 1 17 -1 14 -4z"/>
<path d="M3715 2768 c-27 -10 -106 -32 -175 -49 -69 -18 -154 -43 -190 -57
-88 -33 -220 -52 -299 -43 -42 5 -64 4 -66 -3 -13 -45 -25 -109 -21 -113 3 -3
41 -10 86 -16 75 -10 255 0 340 18 22 5 21 3 -5 -9 l-30 -15 40 -1 c94 -1 207
46 286 117 44 40 92 130 87 165 l-3 24 -50 -18z m-525 -259 c86 -1 91 -2 50
-11 -49 -10 -169 -2 -204 13 -16 7 -12 8 19 4 22 -2 83 -5 135 -6z"/>
<path d="M970 2731 c0 -37 27 -53 140 -83 145 -38 170 -43 170 -30 0 30 -43
52 -172 90 -120 35 -138 37 -138 23z"/>
<path d="M2880 2726 c-37 -13 -99 -32 -139 -42 -59 -15 -75 -24 -82 -43 -13
-33 -6 -36 49 -22 26 7 76 19 112 27 96 22 134 43 138 77 4 32 5 32 -78 3z"/>
<path d="M1917 2659 c-27 -16 -50 -68 -42 -98 11 -46 44 -71 91 -71 35 0 47 5
69 32 22 26 26 39 21 67 -10 64 -84 102 -139 70z"/>
<path d="M970 2651 c0 -52 65 -91 151 -91 53 0 139 18 139 29 0 10 -98 33
-175 41 -38 3 -80 12 -92 19 -14 7 -23 8 -23 2z"/>
<path d="M2567 2645 c-70 -15 -78 -21 -38 -30 38 -8 101 11 101 31 0 8 -1 14
-2 13 -2 -1 -29 -7 -61 -14z"/>
<path d="M2925 2644 c-16 -7 -53 -13 -82 -14 -28 0 -64 -5 -80 -11 -15 -6 -46
-14 -68 -18 l-40 -8 30 -13 c88 -37 237 -18 265 34 18 35 10 45 -25 30z"/>
<path d="M2483 2597 c5 -15 119 -16 124 -2 1 6 -24 11 -63 12 -47 1 -64 -2
-61 -10z"/>
<path d="M1241 2564 c-65 -29 -136 -36 -196 -21 -30 8 -55 12 -55 10 0 -2 6
-16 14 -32 30 -57 103 -65 226 -25 78 26 87 34 74 68 -7 19 -18 19 -63 0z"/>
<path d="M1390 2565 c-71 -16 -44 -31 38 -21 63 7 73 13 52 26 -18 11 -19 11
-90 -5z"/>
<path d="M2445 2570 c-3 -6 0 -12 7 -14 37 -12 39 -15 6 -11 -35 5 -61 -8 -36
-18 7 -3 1 -6 -14 -6 -44 -1 -32 -19 24 -36 59 -17 104 -19 113 -5 4 6 -6 10
-22 10 -15 1 -41 8 -58 16 -16 8 -21 12 -10 9 10 -3 38 -9 61 -12 48 -6 71 13
27 23 -48 10 -49 12 -7 13 63 1 61 14 -3 27 -73 16 -80 16 -88 4z"/>
<path d="M2622 2555 c-13 -29 -9 -32 87 -64 110 -36 188 -25 217 32 19 35 13
43 -17 26 -37 -19 -150 -14 -204 10 -61 27 -69 26 -83 -4z"/>
<path d="M1499 2515 c-3 -2 -30 -11 -60 -19 -49 -12 -51 -14 -27 -21 30 -8
138 20 138 35 0 10 -43 14 -51 5z"/>
<path d="M2590 2501 c-16 -30 -12 -39 20 -56 37 -19 94 -19 110 0 10 12 8 16
-14 24 -14 6 -43 19 -65 31 -40 20 -40 20 -51 1z"/>
<path d="M1252 2483 c-43 -20 -51 -27 -41 -39 15 -19 63 -18 105 2 36 17 42
32 22 52 -16 16 -24 15 -86 -15z"/>
<path d="M2930 2453 c-13 -21 -34 -50 -47 -64 l-25 -27 51 -11 c28 -6 77 -22
109 -35 130 -55 303 -60 403 -12 49 23 139 98 139 116 0 11 -93 20 -295 30
-165 8 -254 18 -296 35 -12 4 -23 -5 -39 -32z"/>
<path d="M870 2465 c-36 -7 -108 -13 -160 -14 -116 -1 -340 -22 -340 -31 0
-17 104 -102 147 -122 40 -18 67 -22 163 -22 110 -1 121 1 252 44 l136 44 -27
36 c-16 19 -33 45 -40 58 -13 25 -30 26 -131 7z"/>
<path d="M1455 2465 c-48 -13 -52 -19 -10 -15 20 2 20 2 0 -13 -22 -17 -20
-21 11 -31 16 -5 23 -2 27 11 4 10 14 28 23 41 18 25 18 25 -51 7z"/>
<path d="M2410 2475 c0 -3 10 -20 22 -38 13 -18 24 -33 25 -35 1 -2 11 2 24 9
22 11 22 12 4 25 -18 13 -17 14 11 15 21 0 15 4 -26 14 -30 8 -56 14 -57 15
-2 0 -3 -2 -3 -5z"/>
<path d="M1325 2435 c-22 -14 -44 -26 -50 -28 -16 -6 15 -37 36 -37 10 0 34
10 52 23 33 23 34 24 18 45 l-16 21 -40 -24z"/>
<path d="M1905 2421 c-4 -23 -2 -48 4 -60 7 -13 11 -147 11 -396 l0 -377 33 7
c17 4 36 11 42 16 6 6 11 148 13 367 2 238 7 365 14 380 8 15 8 34 2 60 -9 36
-10 37 -61 40 l-51 3 -7 -40z"/>
<path d="M1055 2432 c3 -8 5 -15 5 -18 0 -2 13 -10 30 -19 36 -19 78 -19 120
-2 l31 14 -28 19 c-35 24 -167 29 -158 6z"/>
<path d="M2546 2434 c-8 -21 -1 -31 36 -50 33 -17 78 -12 78 9 0 12 -79 57
-99 57 -5 0 -12 -7 -15 -16z"/>
<path d="M2716 2425 l-27 -22 39 -11 c74 -22 127 -10 151 36 8 15 1 17 -63 18
-60 1 -77 -3 -100 -21z"/>
<path d="M1360 2371 c-35 -30 -37 -48 -3 -37 29 10 65 45 58 56 -9 15 -16 12
-55 -19z"/>
<path d="M2515 2390 c-3 -5 -3 -15 0 -20 11 -18 66 -42 82 -35 12 4 7 12 -23
35 -43 32 -50 35 -59 20z"/>
<path d="M1187 2366 c-55 -18 -57 -19 -41 -37 21 -23 83 -25 124 -4 37 19 37
26 2 45 -24 14 -33 13 -85 -4z"/>
<path d="M2655 2364 l-28 -22 38 -16 c47 -20 95 -20 121 -2 24 18 22 20 -47
43 l-57 19 -27 -22z"/>
<path d="M1399 2341 c-31 -27 -32 -30 -13 -31 32 0 72 35 58 50 -9 9 -20 4
-45 -19z"/>
<path d="M2484 2358 c-10 -15 32 -48 62 -48 24 0 24 1 -9 30 -39 33 -43 35
-53 18z"/>
<path d="M993 2318 c-35 -12 -61 -24 -59 -26 7 -6 107 17 141 33 29 13 29 13
5 14 -14 0 -53 -10 -87 -21z"/>
<path d="M2845 2331 c6 -11 153 -46 161 -39 5 5 -133 48 -154 48 -7 0 -11 -4
-7 -9z"/>
<path d="M1294 2320 c-6 -6 -32 -19 -59 -29 l-48 -18 26 -18 c30 -20 66 -15
117 16 l34 21 -25 19 c-28 22 -32 22 -45 9z"/>
<path d="M1427 2308 c-31 -22 -27 -38 8 -38 29 0 37 12 28 38 l-8 20 -28 -20z"/>
<path d="M2467 2308 c-7 -27 -1 -38 21 -38 37 0 43 16 13 38 l-29 21 -5 -21z"/>
<path d="M2587 2312 c-10 -10 -17 -21 -17 -24 0 -8 95 -48 113 -48 21 0 67 39
46 40 -8 0 -38 11 -65 25 -59 30 -57 30 -77 7z"/>
<path d="M1030 2293 c-79 -26 -236 -53 -307 -53 -23 0 -44 -4 -48 -10 -9 -14
60 -85 102 -105 74 -36 209 -16 362 51 74 33 59 40 -18 8 -89 -35 -99 -25 -12
14 39 18 71 34 71 38 0 8 -64 84 -70 83 -3 -1 -39 -12 -80 -26z"/>
<path d="M2781 2279 c-19 -22 -32 -41 -30 -43 2 -2 31 -17 64 -34 68 -35 61
-42 -11 -12 -26 11 -49 18 -52 15 -7 -7 89 -48 173 -75 130 -40 230 -24 303
51 38 39 37 53 -4 56 -124 10 -285 40 -363 68 -24 8 -44 15 -45 14 0 0 -16
-18 -35 -40z"/>
<path d="M1330 2249 c-24 -16 -50 -29 -58 -29 -12 0 -12 -3 -2 -15 19 -23 82
-19 120 8 41 27 49 47 21 47 -12 0 -21 5 -21 10 0 15 -11 11 -60 -21z"/>
<path d="M2522 2266 c-28 -14 -24 -25 18 -53 38 -27 101 -31 120 -8 10 12 10
15 -2 15 -8 0 -35 14 -61 30 -26 17 -49 29 -50 29 -1 -1 -12 -6 -25 -13z"/>
<path d="M1447 2235 c-10 -14 -36 -34 -58 -45 -40 -21 -44 -40 -8 -40 24 0 91
33 108 53 10 12 10 20 -1 36 -16 26 -19 26 -41 -4z"/>
<path d="M2442 2239 c-11 -18 -11 -24 3 -39 28 -31 83 -52 117 -45 l30 7 -51
29 c-28 16 -57 38 -63 49 -16 25 -20 25 -36 -1z"/>
<path d="M1160 2171 c-39 -24 -121 -60 -192 -84 -26 -9 -22 -21 17 -55 83 -73
180 -58 313 48 52 41 64 60 39 60 -7 0 -34 14 -60 30 -26 17 -53 30 -60 29 -7
0 -32 -13 -57 -28z"/>
<path d="M1486 2171 c-16 -17 -45 -34 -64 -37 -18 -4 -54 -24 -79 -46 -25 -21
-72 -58 -104 -80 -33 -23 -59 -45 -59 -48 0 -11 49 -30 76 -30 67 0 184 98
237 198 35 64 32 83 -7 43z"/>
<path d="M1547 2193 c-2 -5 -7 -21 -11 -36 -6 -25 -5 -27 12 -18 10 5 24 17
31 25 10 12 9 17 -8 25 -11 6 -22 8 -24 4z"/>
<path d="M2410 2189 c0 -51 126 -201 200 -239 47 -24 69 -25 117 -5 l37 16
-60 39 c-32 21 -81 59 -109 84 -27 25 -58 46 -68 46 -25 0 -56 17 -89 48 -19
17 -28 21 -28 11z"/>
<path d="M2685 2190 c-4 -6 -29 -22 -57 -36 l-51 -26 44 -38 c95 -83 207 -119
281 -91 30 11 91 73 81 81 -5 4 -42 19 -83 35 -41 15 -98 41 -126 57 -53 30
-79 35 -89 18z"/>
<path d="M2342 2183 c-9 -3 -2 -13 20 -29 35 -26 47 -19 28 15 -11 21 -23 24
-48 14z"/>
<path d="M1740 2153 c-19 -25 -20 -26 -15 -5 4 13 2 22 -4 22 -6 0 -11 -13
-11 -29 0 -16 -7 -48 -15 -71 -8 -23 -15 -47 -15 -51 0 -20 52 26 75 66 40 68
28 122 -15 68z"/>
<path d="M2155 2168 c-11 -27 13 -85 51 -125 19 -20 36 -34 39 -31 6 6 -29
145 -38 155 -4 3 -7 -2 -7 -11 0 -15 -3 -15 -19 5 -17 21 -20 22 -26 7z"/>
<path d="M1565 2134 c-27 -19 -54 -39 -60 -45 -5 -7 -51 -54 -102 -105 l-92
-94 52 0 c65 0 102 22 157 91 42 54 117 190 103 188 -5 -1 -30 -16 -58 -35z"/>
<path d="M1611 2086 c-24 -47 -66 -110 -98 -145 -30 -34 -54 -64 -51 -66 2 -3
22 0 44 6 79 22 138 88 168 189 22 73 21 100 -3 100 -14 0 -30 -23 -60 -84z"/>
<path d="M2244 2123 c8 -66 63 -171 107 -206 22 -17 54 -31 80 -34 l44 -6 -34
34 c-41 40 -114 152 -142 214 -14 33 -26 45 -41 45 -19 0 -20 -4 -14 -47z"/>
<path d="M2334 2103 c45 -85 117 -178 153 -197 28 -14 62 -19 116 -17 28 1 28
2 -21 40 -27 21 -73 67 -103 101 -44 51 -156 140 -175 140 -3 0 11 -30 30 -67z"/>
<path d="M1774 2006 c-97 -24 -179 -96 -208 -184 -19 -54 -20 -87 -5 -133 24
-78 58 -123 127 -171 l43 -29 33 28 c18 15 41 33 51 39 17 9 15 12 -18 33 -20
12 -52 41 -72 64 -83 96 -19 217 115 217 l41 0 -3 73 c-3 69 -4 72 -28 74 -14
1 -48 -4 -76 -11z"/>
<path d="M2058 2014 c-5 -4 -8 -38 -8 -76 l0 -68 40 0 c89 0 150 -51 150 -126
0 -85 -70 -132 -248 -168 -102 -21 -186 -57 -231 -99 -37 -35 -70 -99 -71
-136 0 -40 22 -99 50 -132 l27 -33 25 20 c24 17 25 24 21 71 -6 51 -4 54 33
91 42 41 75 56 221 96 110 30 166 55 216 97 90 74 120 217 65 309 -35 60 -83
105 -138 129 -50 22 -141 37 -152 25z m-203 -521 c-16 -8 -38 -22 -48 -31 -9
-8 -20 -13 -23 -9 -8 7 66 56 86 56 8 0 2 -7 -15 -16z"/>
<path d="M813 1957 c-85 -28 -116 -47 -79 -47 22 0 185 60 192 71 8 14 -15 9
-113 -24z"/>
<path d="M3000 1982 c0 -8 176 -72 200 -72 30 0 -8 21 -95 50 -95 32 -105 34
-105 22z"/>
<path d="M985 1863 c-60 -31 -104 -58 -98 -60 13 -5 198 91 208 108 8 13 13
14 -110 -48z"/>
<path d="M2850 1901 c37 -29 189 -106 196 -98 6 6 -33 28 -151 84 -43 20 -60
26 -45 14z"/>
<path d="M2700 1837 c0 -12 229 -159 241 -155 7 2 -23 27 -67 54 -104 67 -174
107 -174 101z"/>
<path d="M1185 1816 c-11 -8 -63 -40 -114 -72 -52 -32 -89 -60 -82 -62 11 -4
97 49 195 120 39 28 40 39 1 14z"/>
<path d="M2599 1777 c13 -16 190 -171 236 -206 11 -9 2 4 -20 28 -35 37 -151
138 -210 181 -19 14 -19 14 -6 -3z"/>
<path d="M1220 1696 c-41 -35 -88 -78 -105 -97 l-30 -33 41 32 c46 35 182 161
174 161 -3 0 -39 -28 -80 -63z"/>
<path d="M1352 1635 c-107 -113 -156 -174 -147 -183 7 -7 14 0 146 154 75 89
94 114 86 114 -3 0 -41 -38 -85 -85z"/>
<path d="M2511 1690 c40 -59 199 -240 210 -240 6 0 9 4 7 9 -5 16 -144 173
-194 221 -45 43 -46 43 -23 10z"/>
<path d="M3230 1630 l0 -70 -70 0 -70 0 0 -80 0 -80 70 0 69 0 3 -72 3 -73 75
0 75 0 2 45 c1 25 2 57 2 72 1 26 3 27 69 30 l67 3 0 75 0 75 -67 3 -67 3 -3
67 -3 67 -77 3 -78 3 0 -71z"/>
<path d="M528 1543 l-3 -68 -67 -3 -68 -3 0 -79 0 -79 68 -3 67 -3 3 -67 3
-68 74 0 74 0 3 68 3 67 68 3 67 3 0 79 0 80 -70 0 -70 0 0 70 0 70 -75 0 -74
0 -3 -67z"/>
<path d="M1416 1468 c-42 -61 -74 -114 -71 -117 8 -8 28 18 87 114 67 110 70
115 65 115 -2 0 -39 -50 -81 -112z"/>
<path d="M2456 1533 c55 -97 114 -183 124 -183 10 0 -6 27 -94 158 -56 82 -71
95 -30 25z"/>
<path d="M1566 1429 c-49 -106 -57 -129 -48 -129 9 0 94 201 89 207 -2 2 -21
-33 -41 -78z"/>
<path d="M2156 1451 c-16 -6 -20 -18 -20 -58 -1 -80 -28 -101 -187 -152 -139
-45 -199 -102 -199 -191 0 -43 18 -88 44 -109 24 -20 57 20 50 59 -6 26 -1 35
30 65 29 27 63 43 152 71 82 25 125 45 151 67 64 56 80 134 43 215 -19 42 -29
47 -64 33z m-296 -275 c0 -2 -8 -10 -17 -17 -16 -13 -17 -12 -4 4 13 16 21 21
21 13z"/>
<path d="M2341 1457 c-1 -12 50 -140 60 -151 6 -6 9 -4 8 5 0 16 -67 158 -68
146z"/>
<path d="M1975 1402 c-36 -7 -45 -23 -45 -78 0 -45 3 -54 18 -54 39 0 53 22
50 80 -3 49 -5 55 -23 52z"/>
<path d="M2128 1143 c-12 -3 -18 -14 -18 -35 0 -50 -52 -92 -152 -122 -109
-34 -158 -76 -158 -137 0 -41 23 -99 40 -99 12 0 30 34 30 58 0 30 41 60 120
88 41 14 86 32 101 39 36 19 76 68 84 104 6 30 -10 112 -23 110 -4 -1 -15 -3
-24 -6z"/>
<path d="M1958 1093 c-19 -5 -25 -26 -20 -65 4 -27 5 -27 33 -12 24 12 29 21
29 49 0 35 -5 38 -42 28z"/>
<path d="M1070 1015 l0 -64 -67 -3 -68 -3 0 -75 0 -75 65 -5 65 -5 3 -67 3
-68 74 0 75 0 0 70 0 69 68 3 67 3 3 69 c4 82 -2 88 -78 84 l-55 -3 -3 68 -3
67 -74 0 -75 0 0 -65z"/>
<path d="M2730 1015 l0 -65 -65 0 -65 0 0 -80 0 -80 65 0 64 0 3 -67 3 -68 70
0 70 0 3 68 3 67 65 0 65 0 -3 78 -3 77 -62 3 -63 3 0 64 0 65 -75 0 -75 0 0
-65z"/>
<path d="M2093 894 c-36 -52 -60 -71 -119 -93 -84 -32 -119 -56 -138 -96 -15
-31 -15 -37 0 -74 9 -23 20 -41 24 -41 13 0 32 29 26 39 -14 22 45 69 118 95
100 37 138 78 134 144 -4 54 -19 63 -45 26z"/>
<path d="M1953 863 c-13 -4 -19 -53 -7 -53 18 0 44 24 44 40 0 19 -12 24 -37
13z"/>
<path d="M2076 727 c-9 -7 -22 -24 -29 -37 -8 -16 -40 -39 -86 -62 -91 -45
-111 -64 -118 -114 -8 -69 39 -101 52 -35 7 36 23 50 106 92 85 42 109 68 109
114 0 44 -12 58 -34 42z"/>
<path d="M1947 683 c-14 -13 -6 -33 12 -33 19 0 35 23 24 34 -8 8 -28 8 -36
-1z"/>
<path d="M2049 564 c-7 -9 -18 -26 -24 -38 -6 -11 -33 -33 -60 -48 -93 -50
-124 -107 -91 -166 11 -21 14 -21 25 -8 7 8 10 19 7 25 -15 23 20 63 86 98 74
38 102 74 96 120 -4 32 -20 39 -39 17z"/>
<path d="M1950 525 c-14 -17 -5 -36 15 -28 16 6 21 43 6 43 -5 0 -14 -7 -21
-15z"/>
<path d="M2042 428 c-5 -7 -12 -24 -14 -38 -2 -17 -19 -35 -53 -57 -101 -66
-127 -122 -90 -193 19 -37 38 -40 25 -4 -6 14 -10 35 -10 46 0 22 58 82 110
113 53 32 74 67 66 109 -7 38 -17 44 -34 24z"/>
<path d="M1962 391 c-8 -4 -12 -18 -10 -29 2 -15 7 -19 16 -13 8 4 12 18 10
29 -2 15 -7 19 -16 13z"/>
<path d="M1957 232 c-16 -17 -17 -31 -11 -91 3 -39 10 -74 14 -76 9 -5 25 155
18 175 -2 7 -10 4 -21 -8z"/>
</g>
</svg>
