<?xml version="1.0" standalone="no"?>
<!DOCTYPE svg PUBLIC "-//W3C//DTD SVG 20010904//EN"
 "http://www.w3.org/TR/2001/REC-SVG-20010904/DTD/svg10.dtd">
<svg version="1.0" xmlns="http://www.w3.org/2000/svg"
 width="512.000000pt" height="512.000000pt" viewBox="0 0 512.000000 512.000000"
 preserveAspectRatio="xMidYMid meet">

<g transform="translate(0.000000,512.000000) scale(0.100000,-0.100000)"
fill="#000000" stroke="none">
<path d="M1095 5106 c-119 -29 -227 -117 -281 -231 -19 -38 -34 -75 -34 -81 0
-9 -66 -13 -252 -16 -253 -3 -253 -3 -314 -31 -104 -48 -182 -144 -204 -252
-7 -35 -10 -385 -7 -1106 3 -1040 3 -1055 24 -1127 105 -362 397 -604 767
-638 65 -6 75 -9 79 -28 3 -11 20 -93 37 -181 18 -88 36 -168 42 -178 13 -25
68 -47 116 -47 l39 0 6 -163 c10 -306 91 -508 286 -710 349 -362 885 -419
1311 -138 81 53 201 172 260 257 100 145 160 304 180 479 6 55 10 485 10 1105
0 1086 0 1073 50 1209 85 228 280 412 518 488 107 34 297 43 407 18 264 -58
483 -240 581 -483 60 -150 58 -117 62 -858 l3 -681 -63 -6 c-51 -5 -67 -10
-85 -32 -23 -26 -23 -26 -23 -395 l0 -369 23 -27 c20 -23 34 -28 85 -32 l62
-4 0 -185 c0 -182 0 -184 25 -208 27 -27 79 -33 106 -12 34 26 39 54 39 230
l0 174 62 6 c51 5 67 10 85 32 23 26 23 26 23 391 0 243 -4 372 -11 386 -14
26 -68 48 -119 48 l-40 0 0 648 c0 700 -4 757 -55 904 -119 339 -421 595 -769
649 -104 17 -323 6 -416 -21 -186 -52 -382 -180 -499 -325 -94 -118 -147 -221
-194 -380 -20 -68 -21 -99 -27 -1175 -5 -748 -10 -1120 -18 -1151 -33 -137
-88 -257 -167 -358 -110 -144 -254 -240 -442 -297 -76 -23 -107 -27 -223 -28
-150 0 -223 14 -345 67 -101 45 -167 89 -251 169 -178 169 -264 384 -264 659
l0 119 40 0 c50 0 105 22 118 47 6 10 24 90 42 178 17 88 34 170 37 181 4 19
14 22 79 28 262 24 501 161 643 369 45 66 99 183 124 269 21 72 21 87 24 1127
3 721 0 1071 -7 1106 -22 108 -100 204 -204 252 -61 28 -61 28 -313 31 -187 3
-253 7 -253 16 0 6 -15 43 -34 81 -87 182 -288 278 -481 231z m206 -181 c56
-28 129 -107 129 -140 0 -3 -106 -5 -235 -5 -129 0 -235 3 -235 6 0 13 25 52
54 82 31 34 70 58 116 73 37 13 132 4 171 -16z m719 -1025 c11 -11 22 -30 25
-42 3 -13 4 -351 3 -753 -3 -652 -6 -735 -21 -778 -62 -177 -188 -299 -362
-348 -39 -11 -139 -14 -470 -14 -331 0 -431 3 -470 14 -174 49 -300 171 -362
348 -15 43 -18 126 -21 778 -1 402 0 740 3 753 3 12 14 31 25 42 20 20 37 20
825 20 788 0 805 0 825 -20z m2930 -2620 l0 -260 -85 0 -85 0 0 260 0 260 85
0 85 0 0 -260z"/>
<path d="M1165 3491 c-65 -29 -246 -263 -320 -416 -75 -155 -91 -249 -61 -365
55 -212 270 -350 481 -311 245 45 394 267 344 513 -17 85 -110 262 -197 378
-131 172 -194 223 -247 201z"/>
</g>
</svg>
