<?xml version="1.0" standalone="no"?>
<!DOCTYPE svg PUBLIC "-//W3C//DTD SVG 20010904//EN"
 "http://www.w3.org/TR/2001/REC-SVG-20010904/DTD/svg10.dtd">
<svg version="1.0" xmlns="http://www.w3.org/2000/svg"
 width="512.000000pt" height="512.000000pt" viewBox="0 0 512.000000 512.000000"
 preserveAspectRatio="xMidYMid meet">

<g transform="translate(0.000000,512.000000) scale(0.100000,-0.100000)"
fill="#000000" stroke="none">
<path d="M2330 5021 c0 -34 26 -93 252 -571 124 -261 228 -485 232 -497 5 -15
-3 -45 -22 -90 -76 -176 -97 -280 -96 -473 2 -201 20 -269 157 -602 118 -284
137 -354 137 -496 0 -346 -225 -638 -572 -744 -72 -22 -86 -22 -793 -28 -554
-5 -729 -9 -760 -19 -134 -44 -265 -153 -324 -269 -59 -116 -61 -139 -61 -669
l0 -483 280 0 280 0 0 345 c0 288 3 352 15 382 21 50 42 72 90 94 86 40 169
15 249 -72 162 -178 337 -347 405 -391 253 -165 657 -278 996 -278 698 0 1362
395 1713 1019 119 212 168 343 287 771 138 493 160 620 159 930 0 365 -38 514
-229 905 -180 368 -306 525 -501 623 -119 60 -158 67 -389 67 -290 0 -293 2
-558 237 -158 141 -194 188 -222 282 l-12 41 -121 3 -122 3 6 -33 c49 -263
174 -572 322 -798 153 -235 291 -378 612 -636 246 -198 328 -278 389 -382 91
-152 126 -301 119 -498 -4 -110 -10 -143 -37 -225 -18 -52 -47 -121 -65 -153
l-32 -57 25 -52 c33 -66 36 -176 7 -251 -24 -63 -559 -734 -613 -770 -165
-109 -385 -52 -470 122 -35 72 -39 179 -9 256 24 63 559 734 613 770 84 55
196 72 282 41 l42 -15 31 65 c74 159 90 348 42 511 -57 197 -110 262 -423 514
-414 333 -600 549 -780 907 -102 205 -162 382 -211 626 l-11 57 -155 0 c-144
0 -154 -1 -154 -19z m550 -3661 l0 -80 -160 0 -160 0 0 80 0 80 160 0 160 0 0
-80z m245 -324 c28 -22 52 -41 54 -43 2 -1 -43 -62 -100 -135 -57 -73 -109
-138 -115 -146 -8 -11 -21 -5 -70 34 -32 26 -60 49 -62 50 -8 6 224 291 233
286 6 -3 33 -24 60 -46z m513 -216 l40 -160 -42 -11 c-22 -5 -56 -14 -75 -19
-19 -5 -36 -8 -37 -7 -2 1 -20 73 -42 160 l-40 157 37 9 c20 6 52 14 71 19 19
6 38 11 41 11 4 1 25 -71 47 -159z"/>
<path d="M1038 4145 c-215 -35 -396 -126 -559 -282 -366 -350 -420 -915 -129
-1337 59 -85 189 -214 270 -267 272 -179 593 -225 896 -128 l90 29 339 -35
c187 -18 341 -32 343 -31 1 2 -32 129 -74 282 l-76 278 40 121 c63 186 77 338
47 511 -38 218 -124 390 -278 551 -189 197 -434 307 -707 318 -73 3 -146 -1
-202 -10z m402 -545 l0 -240 240 0 240 0 0 -240 0 -240 -240 0 -240 0 0 -240
0 -240 -240 0 -240 0 0 240 0 240 -240 0 -240 0 0 240 0 240 240 0 240 0 0
240 0 240 240 0 240 0 0 -240z"/>
<path d="M3773 2210 c-41 -25 -349 -408 -337 -420 5 -5 60 -49 123 -100 91
-72 117 -88 126 -78 50 55 296 370 310 397 66 129 -98 277 -222 201z"/>
<path d="M3261 1593 c-34 -43 -64 -93 -67 -110 -19 -102 56 -193 158 -193 58
0 95 25 163 110 49 60 56 73 44 84 -35 32 -228 186 -233 186 -3 0 -32 -35 -65
-77z"/>
</g>
</svg>
