<?xml version="1.0" standalone="no"?>
<!DOCTYPE svg PUBLIC "-//W3C//DTD SVG 20010904//EN"
 "http://www.w3.org/TR/2001/REC-SVG-20010904/DTD/svg10.dtd">
<svg version="1.0" xmlns="http://www.w3.org/2000/svg"
 width="512.000000pt" height="493.000000pt" viewBox="0 0 512.000000 493.000000"
 preserveAspectRatio="xMidYMid meet">

<g transform="translate(0.000000,493.000000) scale(0.100000,-0.100000)"
fill="#000000" stroke="none">
<path d="M805 4920 c-52 -21 -62 -48 -179 -470 -63 -228 -119 -434 -126 -457
l-11 -43 -150 0 c-168 0 -202 -9 -232 -59 -9 -16 -17 -48 -17 -71 0 -34 6 -48
34 -76 l34 -34 234 0 c254 0 263 2 292 58 8 15 48 152 90 305 43 153 81 288
85 299 9 25 -8 71 245 -655 101 -291 192 -537 202 -548 9 -10 35 -24 56 -30
32 -8 46 -7 75 8 20 10 45 29 55 43 9 14 75 216 146 450 l128 425 196 5 197 5
30 29 c17 16 33 44 37 61 8 44 -18 100 -58 125 -31 19 -50 20 -276 20 -260 0
-283 -4 -314 -52 -8 -13 -55 -155 -103 -316 -58 -191 -91 -287 -96 -275 -3 10
-98 279 -209 598 -111 319 -208 592 -216 606 -23 45 -98 70 -149 49z"/>
<path d="M3004 4619 c-16 -4 -41 -20 -55 -35 -23 -25 -24 -30 -29 -227 l-5
-202 -90 -5 c-100 -6 -127 -17 -150 -66 -23 -48 -22 -990 0 -1038 31 -65 39
-66 385 -66 258 0 316 3 340 15 61 31 60 26 60 570 0 544 1 539 -60 570 -20
11 -60 15 -135 15 l-105 0 0 115 0 115 265 0 265 0 0 -1300 0 -1300 -815 0
-815 0 0 173 c0 117 -5 189 -15 226 -43 162 -165 299 -324 363 -56 23 -57 23
-766 28 l-710 5 -5 292 c-5 291 -5 291 -29 317 -55 59 -144 52 -188 -13 l-23
-34 2 -1533 3 -1534 30 -30 c40 -39 90 -48 139 -25 65 31 66 38 66 380 l0 305
1725 0 1725 0 0 -230 0 -230 -191 0 c-214 0 -235 -5 -265 -68 -22 -47 -12 -98
26 -137 l30 -30 508 -3 c495 -2 508 -2 540 18 45 28 67 82 53 130 -6 20 -22
47 -37 61 -25 24 -29 24 -225 27 l-199 3 0 230 0 229 475 0 475 0 0 -305 c0
-336 2 -350 60 -380 62 -32 136 -9 165 52 14 28 15 119 13 740 l-3 708 -27 57
c-35 75 -95 138 -165 174 l-58 29 -467 3 -468 3 0 1299 0 1300 265 0 265 0 0
-115 0 -115 -114 0 c-101 0 -116 -2 -141 -22 -55 -43 -55 -47 -55 -563 0 -516
0 -520 55 -563 27 -22 35 -22 350 -22 315 0 323 0 350 22 55 43 55 47 55 563
0 516 0 520 -55 563 -24 19 -41 22 -116 22 l-89 0 0 193 c0 172 -2 195 -20
224 -37 61 5 58 -855 60 -446 1 -803 -2 -821 -8z m-1372 -2305 c61 -20 123
-75 156 -138 26 -49 27 -59 30 -223 l4 -173 -776 0 -776 0 0 275 0 275 658 0
c569 0 665 -2 704 -16z"/>
</g>
</svg>
